<svg width="40" height="40" viewBox="0 0 40 40" fill="none" xmlns="http://www.w3.org/2000/svg">
<rect width="40" height="40" rx="5" fill="#FEF5F5"/>
<path d="M16.2791 29.3333H8.8372C7.6465 29.3333 6.66666 28.319 6.66666 27.0864V14.2469C6.66666 13.0143 7.6465 12 8.8372 12H15.0387C17.6062 12 19.6899 14.157 19.6899 16.8148C19.6899 18.1373 19.169 19.3314 18.338 20.2044C19.876 20.9877 20.9302 22.6311 20.9302 24.5185C20.9302 27.1763 18.8465 29.3333 16.2791 29.3333ZM8.52712 21.6296V27.0864C8.52712 27.2662 8.66356 27.4074 8.8372 27.4074H16.2791C17.817 27.4074 19.0698 26.1106 19.0698 24.5185C19.0698 22.9264 17.817 21.6296 16.2791 21.6296H8.52712ZM8.52712 19.7037H15.0387C16.5767 19.7037 17.8294 18.4069 17.8294 16.8148C17.8294 15.2227 16.5767 13.9259 15.0387 13.9259H8.8372C8.66356 13.9259 8.52712 14.0672 8.52712 14.2469V19.7037ZM29.5132 29.3333H27.4419C24.1922 29.3333 21.5504 26.5985 21.5504 23.2346C21.5504 19.8706 24.1922 17.1358 27.4419 17.1358C30.6915 17.1358 33.3333 19.8706 33.3333 23.2346C33.3333 23.761 32.9116 24.1975 32.4031 24.1975H23.5225C23.9442 26.0336 25.5442 27.4074 27.4419 27.4074H29.5132C30.0217 27.4074 30.4434 27.844 30.4434 28.3704C30.4434 28.8968 30.0217 29.3333 29.5132 29.3333ZM23.5225 22.2716H31.3736C31.1628 21.3591 30.6616 20.5464 29.9508 19.9642C29.2399 19.3821 28.3607 19.0642 27.4543 19.0617C26.5464 19.064 25.6656 19.3816 24.9527 19.9636C24.2399 20.5455 23.7362 21.3582 23.5225 22.2716ZM29.3023 15.8519H25.5814C25.0729 15.8519 24.6512 15.4153 24.6512 14.8889C24.6512 14.3625 25.0729 13.9259 25.5814 13.9259H29.3023C29.8108 13.9259 30.2325 14.3625 30.2325 14.8889C30.2325 15.4153 29.8108 15.8519 29.3023 15.8519Z" fill="#204E51"/>
</svg>
