<svg width="222" height="28" viewBox="0 0 222 28" fill="none" xmlns="http://www.w3.org/2000/svg">
<path d="M17.352 22L15.532 17.772H7.328L5.508 22H0.86L9.316 2.428H13.544L22 22H17.352ZM11.444 8.252L8.98 13.936H13.88L11.444 8.252ZM34.4073 14.16C34.4073 12.9467 34.0713 11.9947 33.3993 11.304C32.7273 10.6133 31.8966 10.268 30.9073 10.268C29.9179 10.268 29.0593 10.6133 28.3313 11.304C27.6219 11.9947 27.2673 12.9373 27.2673 14.132C27.2673 15.3267 27.6126 16.2973 28.3033 17.044C29.0126 17.772 29.8713 18.136 30.8793 18.136C31.8873 18.136 32.7273 17.772 33.3993 17.044C34.0713 16.316 34.4073 15.3547 34.4073 14.16ZM34.9953 19.452C33.6699 20.9267 32.0179 21.664 30.0393 21.664C28.0793 21.664 26.4179 21.0013 25.0553 19.676C23.7113 18.332 23.0393 16.5493 23.0393 14.328C23.0393 12.088 23.7299 10.2587 25.1113 8.84C26.5113 7.40267 28.1073 6.684 29.8993 6.684C31.6913 6.684 33.1753 7.42133 34.3513 8.896V6.908H38.5513V20.04C38.5513 21.384 38.3179 22.5787 37.8513 23.624C37.3846 24.6693 36.7593 25.4907 35.9753 26.088C34.4259 27.32 32.5966 27.936 30.4873 27.936C29.3673 27.936 28.2193 27.7493 27.0433 27.376C25.8859 27.0213 24.8686 26.508 23.9913 25.836L25.6153 22.672C26.9966 23.7173 28.4526 24.24 29.9833 24.24C31.5326 24.24 32.7553 23.8573 33.6513 23.092C34.5473 22.3267 34.9953 21.1133 34.9953 19.452ZM50.4511 10.632C49.2004 10.632 48.2671 11.08 47.6511 11.976C47.0351 12.8533 46.7271 14.02 46.7271 15.476V22H42.5271V6.936H46.7271V8.924C47.2684 8.308 47.9404 7.78533 48.7431 7.356C49.5644 6.92667 50.3951 6.70267 51.2351 6.684L51.2631 10.632H50.4511ZM58.2388 22H54.0388V6.936H58.2388V22ZM54.3748 5.032C53.9081 4.54667 53.6748 3.95867 53.6748 3.268C53.6748 2.57733 53.9081 1.99867 54.3748 1.532C54.8601 1.04667 55.4481 0.803999 56.1388 0.803999C56.8294 0.803999 57.4081 1.04667 57.8748 1.532C58.3601 1.99867 58.6028 2.57733 58.6028 3.268C58.6028 3.95867 58.3601 4.54667 57.8748 5.032C57.4081 5.49867 56.8294 5.732 56.1388 5.732C55.4481 5.732 54.8601 5.49867 54.3748 5.032ZM66.2746 22L60.3106 6.908H64.6786L68.4306 16.4L72.1826 6.908H76.5506L70.5866 22H66.2746ZM82.8208 22H78.6208V6.936H82.8208V22ZM78.9568 5.032C78.4901 4.54667 78.2568 3.95867 78.2568 3.268C78.2568 2.57733 78.4901 1.99867 78.9568 1.532C79.4421 1.04667 80.0301 0.803999 80.7208 0.803999C81.4115 0.803999 81.9901 1.04667 82.4568 1.532C82.9421 1.99867 83.1848 2.57733 83.1848 3.268C83.1848 3.95867 82.9421 4.54667 82.4568 5.032C81.9901 5.49867 81.4115 5.732 80.7208 5.732C80.0301 5.732 79.4421 5.49867 78.9568 5.032ZM98.1366 17.324C98.1366 18.7987 97.5859 19.984 96.4846 20.88C95.4019 21.776 94.0206 22.224 92.3406 22.224C91.2206 22.224 90.0539 22.028 88.8406 21.636C87.6273 21.2253 86.5353 20.628 85.5646 19.844L87.4126 17.212C88.9806 18.4253 90.6513 19.032 92.4246 19.032C92.9659 19.032 93.3953 18.9293 93.7126 18.724C94.0299 18.5 94.1886 18.2107 94.1886 17.856C94.1886 17.5013 93.9646 17.1747 93.5166 16.876C93.0873 16.5773 92.4526 16.2973 91.6126 16.036C90.7913 15.7747 90.1566 15.5507 89.7086 15.364C89.2793 15.1773 88.7846 14.9067 88.2246 14.552C87.0859 13.8427 86.5166 12.7973 86.5166 11.416C86.5166 10.016 87.0766 8.87733 88.1966 8C89.3166 7.12267 90.7633 6.684 92.5366 6.684C94.3099 6.684 96.0833 7.28133 97.8566 8.476L96.2886 11.276C94.9819 10.38 93.6753 9.932 92.3686 9.932C91.0806 9.932 90.4366 10.2867 90.4366 10.996C90.4366 11.388 90.6419 11.696 91.0526 11.92C91.4633 12.144 92.1446 12.4053 93.0966 12.704C94.0486 13.0027 94.7206 13.236 95.1126 13.404C95.5233 13.5533 96.0086 13.796 96.5686 14.132C97.6139 14.7667 98.1366 15.8307 98.1366 17.324ZM106.246 9.96V16.708C106.246 17.2867 106.395 17.744 106.694 18.08C106.993 18.3973 107.347 18.556 107.758 18.556C108.542 18.556 109.205 18.2013 109.746 17.492L111.314 20.432C110.007 21.6267 108.626 22.224 107.17 22.224C105.733 22.224 104.51 21.748 103.502 20.796C102.513 19.844 102.018 18.5467 102.018 16.904V9.96H100.254V6.936H102.018V2.428H106.246V6.936H109.886V9.96H106.246ZM126.362 22H122.414V20.18C121.331 21.5427 119.987 22.224 118.382 22.224C116.795 22.224 115.461 21.7667 114.378 20.852C113.295 19.9187 112.754 18.6867 112.754 17.156C112.754 15.6067 113.314 14.4493 114.434 13.684C115.554 12.9187 117.085 12.536 119.026 12.536H122.162V12.452C122.162 10.8467 121.313 10.044 119.614 10.044C118.886 10.044 118.111 10.1933 117.29 10.492C116.487 10.772 115.806 11.1267 115.246 11.556L113.37 8.84C115.349 7.40267 117.607 6.684 120.146 6.684C121.975 6.684 123.469 7.14133 124.626 8.056C125.783 8.97067 126.362 10.4173 126.362 12.396V22ZM122.134 16.26V15.532H119.502C117.822 15.532 116.982 16.0547 116.982 17.1C116.982 17.6413 117.178 18.0613 117.57 18.36C117.981 18.64 118.559 18.78 119.306 18.78C120.053 18.78 120.706 18.556 121.266 18.108C121.845 17.6413 122.134 17.0253 122.134 16.26ZM151.434 2.428V6.264H142.362V10.492H150.986V14.328H142.362V22H137.994V2.428H151.434ZM167.104 22H163.156V20.18C162.074 21.5427 160.73 22.224 159.124 22.224C157.538 22.224 156.203 21.7667 155.12 20.852C154.038 19.9187 153.496 18.6867 153.496 17.156C153.496 15.6067 154.056 14.4493 155.176 13.684C156.296 12.9187 157.827 12.536 159.768 12.536H162.904V12.452C162.904 10.8467 162.055 10.044 160.356 10.044C159.628 10.044 158.854 10.1933 158.032 10.492C157.23 10.772 156.548 11.1267 155.988 11.556L154.112 8.84C156.091 7.40267 158.35 6.684 160.888 6.684C162.718 6.684 164.211 7.14133 165.368 8.056C166.526 8.97067 167.104 10.4173 167.104 12.396V22ZM162.876 16.26V15.532H160.244C158.564 15.532 157.724 16.0547 157.724 17.1C157.724 17.6413 157.92 18.0613 158.312 18.36C158.723 18.64 159.302 18.78 160.048 18.78C160.795 18.78 161.448 18.556 162.008 18.108C162.587 17.6413 162.876 17.0253 162.876 16.26ZM178.857 10.632C177.607 10.632 176.673 11.08 176.057 11.976C175.441 12.8533 175.133 14.02 175.133 15.476V22H170.933V6.936H175.133V8.924C175.675 8.308 176.347 7.78533 177.149 7.356C177.971 6.92667 178.801 6.70267 179.641 6.684L179.669 10.632H178.857ZM196.277 13.88V22H192.049V13.768C192.049 12.5733 191.862 11.696 191.489 11.136C191.134 10.576 190.546 10.296 189.725 10.296C188.922 10.296 188.204 10.604 187.569 11.22C186.953 11.8173 186.645 12.704 186.645 13.88V22H182.445V6.936H186.645V8.644C187.802 7.33733 189.128 6.684 190.621 6.684C191.573 6.684 192.432 6.964 193.197 7.524C193.981 8.084 194.569 8.76533 194.961 9.568C195.54 8.65333 196.314 7.944 197.285 7.44C198.274 6.936 199.264 6.684 200.253 6.684C202.026 6.684 203.454 7.216 204.537 8.28C205.62 9.32533 206.161 10.8467 206.161 12.844V22H201.933V13.768C201.933 11.4533 201.084 10.296 199.385 10.296C198.545 10.296 197.817 10.604 197.201 11.22C196.585 11.8173 196.277 12.704 196.277 13.88ZM221.32 17.324C221.32 18.7987 220.77 19.984 219.668 20.88C218.586 21.776 217.204 22.224 215.524 22.224C214.404 22.224 213.238 22.028 212.024 21.636C210.811 21.2253 209.719 20.628 208.748 19.844L210.596 17.212C212.164 18.4253 213.835 19.032 215.608 19.032C216.15 19.032 216.579 18.9293 216.896 18.724C217.214 18.5 217.372 18.2107 217.372 17.856C217.372 17.5013 217.148 17.1747 216.7 16.876C216.271 16.5773 215.636 16.2973 214.796 16.036C213.975 15.7747 213.34 15.5507 212.892 15.364C212.463 15.1773 211.968 14.9067 211.408 14.552C210.27 13.8427 209.7 12.7973 209.7 11.416C209.7 10.016 210.26 8.87733 211.38 8C212.5 7.12267 213.947 6.684 215.72 6.684C217.494 6.684 219.267 7.28133 221.04 8.476L219.472 11.276C218.166 10.38 216.859 9.932 215.552 9.932C214.264 9.932 213.62 10.2867 213.62 10.996C213.62 11.388 213.826 11.696 214.236 11.92C214.647 12.144 215.328 12.4053 216.28 12.704C217.232 13.0027 217.904 13.236 218.296 13.404C218.707 13.5533 219.192 13.796 219.752 14.132C220.798 14.7667 221.32 15.8307 221.32 17.324Z" fill="#1E1E1E"/>
</svg>
